<svg width="100" height="52" viewBox="0 0 100 52" fill="none" xmlns="http://www.w3.org/2000/svg">
<path d="M25.5082 23.8827C26.22 25.5086 26.9839 27.253 27.9301 28.898C25.7721 32.6464 22.6628 35.8458 17.083 35.8755C14.1369 35.8912 11.5762 34.8212 9.46858 32.6969C8.31235 31.5276 7.34536 30.0934 6.54155 28.4519C5.30199 25.9198 4.44783 22.8877 3.86798 19.5714C2.81765 13.5698 2.65967 6.6307 2.72738 0L8.10749 0.0540215C8.07798 2.88231 8.02937 7.78257 8.45297 12.8414C8.66304 15.3665 8.99116 17.9316 9.4981 20.2981C10.2724 23.9036 11.4616 27.0473 13.2845 28.8858C14.3643 29.9767 15.564 30.4803 17.0553 30.4733C21.109 30.4524 22.8434 27.5335 24.9857 22.7012C25.1576 23.0828 25.3312 23.4767 25.5082 23.8827Z" fill="#F44040"/>
<path d="M74.3335 13.4166C75.2935 14.6643 76.0227 16.1002 76.6459 17.5954C75.7466 19.8974 75.1928 22.4103 74.6928 24.6966C74.5748 25.2368 74.4342 25.8816 74.2779 26.5403C73.7397 25.2961 73.2849 24.0135 72.837 22.7501C70.811 17.0587 69.6148 14.7427 65.877 14.7619C64.7538 14.7671 63.8337 15.0372 63.049 15.6192C62.3181 16.1577 61.7035 16.9663 61.148 18.0851C60.8094 18.7664 60.523 19.514 60.2747 20.3017C59.641 22.3075 59.2539 24.5676 58.8997 26.6292C58.5733 28.5373 58.2921 30.1859 57.8459 31.526C56.8321 34.5703 55.03 35.2186 53.6967 35.2255C52.4485 35.2325 50.7297 34.6522 49.6308 31.8536C49.6239 31.8344 49.6169 31.8152 49.6082 31.7961C49.1395 30.5849 48.7905 29.0863 48.3878 27.3576C48.2072 26.5786 48.0232 25.8171 47.8357 25.0817C46.2871 19.0557 44.3305 14.7009 39.0841 14.7288C34.8394 14.7514 33.0616 17.7418 30.8725 22.6891C30.7301 22.3684 30.586 22.0426 30.4384 21.708C29.7006 20.0211 28.9055 18.2071 27.9072 16.508C30.1051 12.662 33.2839 9.35799 39.0563 9.32662C43.7819 9.30222 47.4659 11.4474 50.0041 15.7012C50.6082 16.7136 51.1134 17.7906 51.5457 18.8867C52.478 21.2566 53.0682 23.726 53.5682 25.8694C53.57 25.8711 53.57 25.8729 53.57 25.8746C53.57 25.8711 53.5717 25.8659 53.5717 25.8624C53.5821 25.8119 53.5891 25.7631 53.5995 25.7143C54.1255 22.6368 54.7817 18.8065 56.3321 15.6802C56.4171 15.5095 56.5022 15.3439 56.5907 15.1819C59.174 10.4123 63.0281 9.37542 65.8545 9.35973C69.3961 9.34231 72.2519 10.7068 74.3335 13.4166Z" fill="#F44040"/>
<path d="M100 19.2544C99.802 20.9081 99.4305 22.9819 98.7413 25.0992C98.2274 26.6762 97.533 28.2777 96.6042 29.7468C95.7743 31.059 94.8247 32.1516 93.7674 33.0246C91.8022 34.6488 89.4654 35.4957 86.8648 35.5096C83.3006 35.5288 80.3458 34.4536 78.0576 32.3049C78.1409 32.1446 78.2173 31.9738 78.2937 31.7961C79.0055 30.1493 79.4604 28.0878 79.9378 25.9077C81.3857 28.6472 83.2277 30.1249 86.8352 30.1057C90.1147 30.0883 92.0522 27.443 93.1858 24.6147C94.1216 22.2831 94.5105 19.8242 94.6563 18.6096L97.1667 18.9111L100 19.2544Z" fill="#F44040"/>
<path d="M30.8697 22.6889C30.7152 23.0357 30.5589 23.3964 30.3992 23.7624C29.677 25.4266 28.8992 27.218 27.9305 28.8962C26.9843 27.2511 26.2205 25.5067 25.5087 23.8809C25.3316 23.4766 25.158 23.081 24.9844 22.6994C25.1406 22.3456 25.3003 21.9797 25.4635 21.605C26.1805 19.9547 26.9496 18.179 27.9045 16.5078C28.901 18.2069 29.6978 20.0227 30.4357 21.7078C30.5832 22.0407 30.7273 22.3683 30.8697 22.6889Z" fill="#F44040"/>
<path d="M27.904 16.5063C26.9492 18.1792 26.1801 19.9532 25.4631 21.6034C25.2999 21.9781 25.1402 22.3441 24.9839 22.6978C22.7913 17.8202 20.9771 14.8804 16.5674 14.903C12.8782 14.9222 10.6474 18.1356 9.4981 20.2947C9.20123 20.8559 8.97554 21.3455 8.81756 21.6888C7.8141 23.8793 7.08321 26.2754 6.54155 28.4467C6.04503 30.4438 5.70997 32.2439 5.47386 33.523C5.39921 33.9203 5.33498 34.2706 5.27769 34.5634L0 33.5161C0.0538185 33.2407 0.114581 32.9131 0.184025 32.535C0.715265 29.6648 1.7031 24.3463 3.86972 19.5681C3.89056 19.5228 3.91139 19.4757 3.93222 19.4304C5.29678 16.4575 6.85058 14.3349 8.45298 12.8398C11.2515 10.2223 14.1977 9.51484 16.5396 9.50264C22.4336 9.47302 25.6766 12.7056 27.904 16.5063Z" fill="#1B3863"/>
<path d="M79.9397 25.9075C79.4605 28.0876 79.0074 30.1491 78.2956 31.7959C78.2192 31.9719 78.1411 32.1427 78.0595 32.3047C77.6567 31.9266 77.2731 31.5153 76.9102 31.0692C75.7957 29.6978 74.9693 28.1503 74.2783 26.5401C74.4346 25.8814 74.5752 25.2366 74.6932 24.6964C75.1932 22.4101 75.747 19.8972 76.6463 17.5952C77.1047 18.6913 77.5074 19.8205 77.9033 20.9341C78.5977 22.8823 79.2192 24.5483 79.9397 25.9075Z" fill="#F44040"/>
<path d="M73.2173 35.7465C68.7295 35.7691 66.6914 31.1808 64.8928 27.1292C63.3112 23.569 62.0057 20.915 60.2731 20.3016C60.0196 20.211 59.7557 20.1657 59.4797 20.1657C56.9086 20.1796 55.7749 21.8002 53.6152 25.7769C53.5996 25.8048 53.584 25.8327 53.5683 25.8623C53.5666 25.8641 53.5666 25.8658 53.5649 25.8693C52.5406 27.7565 51.3444 29.9366 49.6066 31.796C47.3671 34.1886 44.2282 36.0497 39.3898 36.0758C33.4107 36.1072 30.1642 32.7736 27.9316 28.8962C28.9004 27.2163 29.6781 25.4267 30.4003 23.7624C30.5601 23.3965 30.7163 23.0358 30.8708 22.689C33.1 27.6816 34.902 30.6981 39.362 30.6754C43.8255 30.6528 45.789 28.5756 47.8341 25.0816C48.1796 24.4909 48.5268 23.86 48.8896 23.1926C49.6517 21.7898 50.4833 20.258 51.5423 18.8883C52.8079 17.252 54.3999 15.8509 56.5857 15.1835C57.4433 14.9204 58.3947 14.7722 59.4519 14.7653C60.7332 14.7583 61.9345 15.0458 63.0491 15.6209C64.2713 16.25 65.3876 17.2293 66.3893 18.5502C67.8112 20.4271 68.8268 22.7169 69.8111 24.9317C70.6601 26.8417 72.0455 29.9645 73.0177 30.313C73.4586 29.7327 73.91 28.0929 74.2798 26.5402C74.9707 28.1504 75.7954 29.6996 76.9117 31.0693C77.2728 31.5154 77.6582 31.9267 78.061 32.3048C76.66 35.1191 74.6756 35.7395 73.2173 35.7465Z" fill="#1B3863"/>
<path d="M99.1962 30.9839C99.224 36.1995 98.2709 41.0841 96.514 44.7384C94.2744 49.3999 90.7398 51.9755 86.5593 51.9982C79.8164 52.0331 76.806 46.3991 76.6792 46.1604L81.45 43.6597L81.4413 43.6406C81.5559 43.8444 83.1687 46.6152 86.5315 46.5978C88.6027 46.5873 90.3318 45.1741 91.6668 42.3946C92.8387 39.9549 93.5783 36.6195 93.7658 33.0262C93.8022 32.3623 93.8179 31.6914 93.8144 31.0152C93.8022 28.7969 93.5852 26.6186 93.1859 24.618C92.8005 22.6698 92.2415 20.8923 91.5384 19.4145C90.6148 17.475 89.0228 15.1625 86.6756 15.1747C82.5923 15.1956 81.3615 19.4198 79.9483 25.8605C79.9448 25.878 79.9414 25.8936 79.9379 25.9111C79.2174 24.5518 78.5959 22.8859 77.9015 20.9376C77.5056 19.8241 77.1029 18.6931 76.6445 17.5987C76.9414 16.8389 77.2765 16.1018 77.6601 15.4048C79.7035 11.6877 82.726 9.7935 86.6461 9.77259C90.679 9.75167 94.1408 12.3499 96.3942 17.0899C96.6702 17.6702 96.9272 18.2801 97.1633 18.9162C97.8647 20.786 98.3942 22.8771 98.7379 25.1025C99.0313 26.9828 99.1858 28.9624 99.1962 30.9839Z" fill="#1B3863"/>
</svg>
